<?xml version="1.0" standalone="no"?>
<!DOCTYPE svg PUBLIC "-//W3C//DTD SVG 20010904//EN"
 "http://www.w3.org/TR/2001/REC-SVG-20010904/DTD/svg10.dtd">
<svg version="1.0" xmlns="http://www.w3.org/2000/svg"
 width="746.000000pt" height="126.000000pt" viewBox="0 0 746.000000 126.000000"
 preserveAspectRatio="xMidYMid meet">

<g transform="translate(0.000000,126.000000) scale(0.100000,-0.100000)"
fill="#D00000" stroke="none">
<path d="M156 1004 c-9 -8 -18 -25 -21 -37 -3 -12 -5 -156 -3 -320 l3 -298 47
-45 47 -44 376 0 377 0 28 30 27 29 28 -29 c25 -26 35 -29 99 -32 l71 -3 3
-32 c2 -22 17 -44 52 -77 l49 -46 104 0 c95 0 105 2 125 23 17 18 22 36 22 75
l0 52 54 0 c39 0 69 8 111 29 l59 30 29 -25 c26 -22 37 -24 136 -24 138 0 141
2 142 126 0 74 2 86 12 69 7 -11 46 -54 87 -97 63 -63 84 -79 129 -92 113 -33
254 -16 327 40 l45 35 41 -32 c50 -40 120 -59 219 -59 89 0 156 18 204 54 l34
27 41 -30 c53 -38 132 -54 241 -49 70 3 97 9 139 31 l52 27 31 -26 31 -26 195
4 c191 3 197 4 253 31 31 15 70 43 86 61 l30 34 37 -38 c20 -21 60 -51 89 -66
48 -27 58 -29 166 -29 100 0 121 3 163 24 26 13 50 27 53 32 3 6 21 -4 40 -21
34 -29 37 -30 142 -30 71 0 112 4 120 12 9 9 15 9 24 0 8 -8 49 -12 120 -12
138 0 148 7 149 113 l1 72 20 -45 c11 -25 41 -66 66 -93 l46 -47 94 0 c51 0
101 4 111 10 10 5 29 35 41 67 40 101 33 99 101 27 91 -94 128 -109 269 -109
110 0 118 1 172 31 l57 31 27 -28 c27 -28 30 -29 134 -29 67 0 110 4 118 12 8
8 13 1 18 -33 10 -58 72 -126 129 -139 105 -25 223 -4 278 48 40 38 53 66 156
344 102 276 101 266 31 333 l-41 40 -92 3 c-99 3 -134 -7 -152 -45 -11 -22
-12 -22 -43 10 l-32 32 -259 2 c-248 3 -260 2 -285 -18 -14 -11 -26 -29 -26
-40 0 -25 -4 -24 -53 9 -62 42 -100 52 -201 52 -75 0 -100 -4 -142 -24 l-52
-24 -21 22 c-18 18 -36 22 -112 25 -101 3 -139 -7 -160 -45 l-13 -25 -20 24
c-31 36 -59 47 -115 47 -49 0 -51 1 -51 28 0 20 -14 41 -49 76 l-48 47 -114
-4 c-139 -6 -114 -6 -238 0 -57 2 -114 2 -126 -1 -33 -8 -45 -48 -45 -147 l0
-90 -37 30 c-57 45 -113 61 -218 61 -83 0 -98 -3 -151 -30 l-59 -30 -35 42
c-66 81 -123 128 -177 148 -47 17 -78 20 -241 20 -103 0 -192 -4 -198 -8 -24
-16 -34 -55 -34 -137 l0 -86 -37 29 c-54 42 -93 52 -207 52 -85 0 -109 -4
-151 -24 -27 -13 -58 -33 -69 -44 l-19 -21 -38 33 c-52 44 -98 56 -215 56 -83
0 -107 -4 -150 -24 -28 -13 -60 -36 -73 -51 l-22 -28 -32 30 c-56 53 -93 66
-200 71 -82 4 -107 1 -156 -17 -57 -21 -58 -21 -95 -2 -32 17 -60 19 -192 20
-85 0 -166 -4 -180 -9 -14 -6 -31 -24 -38 -40 l-12 -31 -20 22 c-10 12 -35 29
-54 39 -32 16 -65 18 -342 16 -302 -1 -307 -1 -330 -23 l-24 -23 -22 22 c-18
18 -36 23 -97 26 -74 4 -75 5 -75 31 0 19 -14 41 -48 74 l-48 47 -266 0 c-229
0 -269 -2 -282 -16z m554 -33 c5 -11 10 -45 10 -75 l0 -56 110 0 110 0 26 -40
26 -40 29 40 29 40 96 0 c52 0 104 -5 114 -10 13 -7 21 -7 25 0 7 12 182 14
189 2 3 -5 31 -2 63 6 47 12 66 12 101 3 69 -19 129 -82 153 -161 5 -16 8 3 8
57 1 103 5 106 139 102 53 -2 107 1 120 5 35 12 120 -12 140 -39 17 -22 18
-22 42 -5 14 10 52 26 84 35 68 20 161 15 227 -11 38 -16 119 -95 119 -118 0
-6 9 7 19 29 37 82 96 109 236 109 131 0 185 -25 227 -108 l15 -28 12 30 c26
63 87 97 193 108 77 8 164 -9 210 -39 37 -26 83 -100 74 -122 -3 -9 -18 -20
-33 -26 -25 -9 -26 -12 -10 -20 25 -15 57 -83 57 -124 0 -46 -32 -108 -67
-132 -54 -37 -96 -48 -193 -47 -114 0 -160 14 -210 64 l-38 38 -20 -28 c-11
-15 -42 -38 -69 -50 -41 -20 -64 -24 -153 -24 -90 0 -112 3 -153 23 -26 13
-58 38 -71 57 l-23 34 -33 -35 c-57 -59 -110 -78 -214 -79 -110 -1 -155 13
-212 66 -49 46 -75 104 -77 176 -2 49 -3 51 -36 57 -20 4 -38 2 -45 -5 -7 -6
-12 -62 -14 -138 -3 -102 -7 -129 -20 -140 -20 -15 -175 -16 -203 -2 -16 9
-19 22 -20 88 0 76 -1 77 -14 40 -21 -58 -45 -87 -93 -115 -38 -23 -57 -27
-114 -27 l-68 1 0 -58 c0 -86 -16 -99 -121 -99 -113 0 -119 5 -119 90 l0 69
-112 3 -113 3 -31 47 -30 47 -19 -31 c-42 -72 -15 -67 -414 -68 -314 0 -361 2
-375 16 -14 13 -16 55 -16 309 0 161 3 300 6 309 5 14 39 16 270 16 250 0 264
-1 274 -19z m3403 3 c26 -9 64 -33 86 -56 40 -39 81 -126 81 -171 0 -43 14
-46 39 -7 64 102 233 138 371 79 60 -26 96 -63 120 -125 l19 -49 1 157 c0 86
3 163 6 172 9 24 219 24 228 0 3 -9 6 -150 6 -314 0 -348 11 -320 -120 -320
-117 0 -120 3 -120 106 0 47 -4 83 -9 80 -4 -3 -6 -16 -4 -29 6 -31 -50 -104
-98 -129 -50 -26 -151 -40 -218 -32 -108 13 -184 69 -215 159 -12 35 -15 37
-22 20 -32 -81 -102 -140 -191 -161 -69 -16 -345 -19 -374 -4 -18 10 -19 24
-19 310 0 164 3 305 6 314 9 23 359 23 427 0z m1215 4 c7 -7 12 -39 12 -75 l0
-63 94 0 c68 0 99 -4 109 -14 7 -8 21 -44 31 -80 10 -36 22 -64 26 -61 4 2 15
31 24 64 25 89 31 92 144 89 108 -3 126 -14 106 -65 -7 -16 -15 -37 -19 -48
-4 -11 6 -1 23 21 20 27 51 52 89 70 51 25 69 29 145 29 75 -1 93 -5 145 -31
46 -23 64 -40 89 -82 l32 -52 4 70 c2 48 9 74 18 81 22 14 494 13 521 -1 8 -5
26 -44 39 -87 l23 -78 23 73 c12 40 28 80 35 88 8 10 35 14 96 14 91 0 123
-10 123 -39 0 -28 -186 -517 -209 -549 -29 -41 -63 -61 -121 -72 -57 -11 -162
-3 -185 14 -19 14 -35 138 -22 162 8 14 19 15 67 10 39 -5 61 -3 65 4 4 6 -19
74 -50 151 -53 128 -59 138 -74 125 -12 -11 -28 -14 -52 -10 -47 8 -49 1 -56
-151 -3 -66 -10 -126 -16 -132 -6 -9 -40 -13 -103 -13 -85 0 -94 2 -108 22 -9
12 -16 42 -16 66 l0 44 -27 -34 c-66 -79 -118 -101 -243 -102 -84 -1 -102 2
-145 25 -58 29 -110 92 -126 152 -6 23 -9 70 -6 105 3 35 4 62 2 60 -2 -2 -31
-70 -65 -153 -35 -82 -70 -158 -78 -167 -22 -26 -172 -26 -194 0 -9 9 -46 93
-84 185 l-69 168 -5 -176 c-4 -141 -8 -178 -20 -185 -22 -14 -194 -12 -208 2
-9 9 -12 93 -12 318 0 169 3 310 7 313 12 13 208 8 221 -5z m1469 -510 l31
-76 -59 2 -59 1 0 67 c0 85 5 99 33 89 15 -6 32 -33 54 -83z"/>
<path d="M200 665 l0 -285 240 0 240 0 0 65 0 65 -150 0 -150 0 0 60 0 60 135
0 135 0 0 55 0 55 -135 0 -135 0 0 48 0 47 147 0 148 0 3 58 3 57 -241 0 -240
0 0 -285z"/>
<path d="M1537 795 c-22 -7 -50 -23 -63 -36 l-24 -22 0 31 0 32 -70 0 -70 0 0
-285 0 -285 75 0 75 0 0 95 c0 52 3 95 7 95 3 0 14 -6 22 -14 40 -37 149 -36
198 1 83 61 97 253 25 339 -44 52 -113 72 -175 49z m43 -125 c29 -29 28 -127
0 -158 -60 -65 -142 26 -110 122 18 57 72 74 110 36z"/>
<path d="M1515 639 c-12 -18 -9 -89 3 -101 6 -6 18 -8 27 -4 23 8 17 109 -7
114 -9 2 -19 -2 -23 -9z"/>
<path d="M2063 803 c-12 -2 -34 -18 -48 -34 l-25 -31 0 31 0 31 -75 0 -75 0 0
-210 0 -210 79 0 79 0 3 123 c5 152 18 181 80 175 38 -3 39 -3 60 50 19 45 20
55 8 63 -8 5 -19 9 -26 9 -6 0 -17 2 -25 4 -7 2 -23 1 -35 -1z"/>
<path d="M2352 799 c-99 -19 -161 -84 -169 -177 -3 -33 -3 -75 1 -94 8 -44 69
-116 114 -135 46 -19 196 -19 242 1 35 15 108 81 99 91 -3 2 -38 8 -77 11 -57
5 -76 4 -90 -8 -27 -24 -49 -28 -82 -17 -31 11 -50 35 -50 63 0 14 21 16 155
16 l155 0 0 48 c0 61 -38 139 -82 169 -18 12 -60 26 -92 32 -66 12 -64 12
-124 0z m118 -109 c11 -11 20 -29 20 -40 0 -18 -7 -20 -75 -20 -66 0 -75 2
-75 18 0 54 89 83 130 42z"/>
<path d="M2847 799 c-60 -12 -93 -33 -113 -70 -20 -39 -18 -82 7 -113 29 -36
61 -51 153 -70 103 -21 124 -37 90 -70 -25 -26 -89 -21 -112 9 -18 23 -23 24
-91 18 -59 -5 -71 -9 -71 -24 0 -30 47 -75 92 -89 69 -21 207 -16 257 10 74
37 101 113 62 176 -22 37 -68 60 -136 69 -100 14 -127 24 -123 48 4 31 77 37
105 9 15 -15 28 -17 82 -13 36 3 66 11 68 17 5 15 -34 62 -65 78 -37 19 -146
27 -205 15z"/>
<path d="M3342 799 c-62 -11 -98 -32 -118 -70 -23 -46 -18 -85 19 -124 28 -31
44 -38 127 -56 119 -25 138 -39 104 -73 -25 -26 -89 -21 -112 9 -18 23 -23 24
-91 18 -39 -3 -74 -9 -76 -13 -9 -15 37 -71 76 -91 61 -31 217 -31 278 0 74
38 101 113 62 177 -23 38 -69 61 -141 69 -91 11 -122 24 -118 48 4 31 78 37
105 9 15 -16 27 -18 80 -13 34 4 65 10 69 14 12 12 -29 61 -67 79 -44 21 -130
28 -197 17z"/>
<path d="M746 788 c4 -7 36 -53 71 -101 l63 -88 -70 -99 c-38 -54 -70 -104
-70 -109 0 -7 29 -11 78 -11 l77 0 44 65 c24 36 47 65 50 65 3 0 22 -28 41
-63 l36 -62 93 -3 93 -3 -77 111 -76 110 61 86 c34 48 64 93 67 100 4 11 -11
14 -76 14 l-81 0 -36 -55 c-20 -30 -40 -55 -44 -55 -5 0 -22 25 -39 55 l-31
55 -91 0 c-69 0 -88 -3 -83 -12z"/>
<path d="M550 780 l135 -5 3 -85 c4 -110 4 -110 -150 -110 -97 0 -118 -3 -118
-15 0 -12 25 -15 148 -17 l147 -3 3 -42 c2 -24 6 -43 10 -43 12 1 93 131 90
143 -2 7 -30 51 -63 99 l-60 87 -140 -1 -140 -2 135 -6z"/>
<path d="M1202 675 l-54 -74 52 -76 c29 -41 56 -75 61 -75 5 0 9 68 9 150 0
83 -3 150 -7 150 -5 0 -32 -34 -61 -75z"/>
<path d="M3138 663 l-27 -13 25 -25 c14 -14 30 -39 36 -55 8 -24 16 -30 40
-30 l30 0 -31 35 c-17 20 -33 48 -37 63 -3 15 -6 29 -7 32 -1 3 -14 0 -29 -7z"/>
<path d="M2694 570 c1 -26 5 -30 30 -30 l30 0 -29 30 c-16 17 -30 30 -30 30
-1 0 -2 -13 -1 -30z"/>
<path d="M3720 665 l0 -285 132 0 c173 0 248 13 300 54 78 59 111 175 88 309
-17 93 -56 151 -123 182 -49 23 -63 25 -224 25 l-173 0 0 -285z m286 150 c45
-19 64 -64 64 -151 0 -113 -35 -154 -131 -154 -34 0 -39 3 -39 23 0 12 -3 77
-7 144 -3 67 -3 129 0 137 8 20 66 21 113 1z"/>
<path d="M3940 669 l0 -121 32 6 c18 3 37 11 43 17 5 5 10 48 10 94 0 92 -8
107 -57 119 l-28 6 0 -121z"/>
<path d="M4870 665 l0 -285 80 0 80 0 0 285 0 285 -80 0 -80 0 0 -285z"/>
<path d="M4494 801 c-62 -10 -126 -53 -154 -103 -37 -65 -34 -159 5 -224 43
-71 97 -95 207 -95 102 0 155 18 200 70 l32 36 -71 9 c-63 8 -77 6 -112 -11
-61 -31 -108 -14 -125 45 l-7 22 160 0 161 0 0 39 c0 83 -47 162 -114 191 -49
21 -126 30 -182 21z m115 -117 c37 -47 29 -54 -59 -54 -44 0 -80 2 -80 5 0 14
31 64 42 68 36 15 77 6 97 -19z"/>
<path d="M5140 900 l0 -50 80 0 80 0 0 50 0 50 -80 0 -80 0 0 -50z"/>
<path d="M6046 799 c-132 -22 -206 -153 -162 -286 32 -96 98 -134 227 -134
105 0 161 21 203 76 l26 33 -70 7 c-60 6 -76 4 -113 -14 -51 -25 -84 -18 -111
21 -33 46 -27 48 145 48 l162 0 -7 56 c-7 60 -32 118 -63 146 -46 42 -149 62
-237 47z m116 -106 c9 -10 19 -28 22 -40 7 -23 6 -23 -73 -23 -89 0 -97 7 -60
54 25 32 87 37 111 9z"/>
<path d="M6640 799 c-14 -5 -35 -22 -47 -37 l-23 -27 0 33 0 32 -70 0 -70 0 0
-210 0 -210 74 0 74 0 4 118 c6 152 19 182 82 182 41 0 44 2 60 43 14 34 19
39 28 27 5 -8 42 -94 82 -190 68 -164 72 -177 59 -202 -15 -31 -48 -43 -99
-35 -30 5 -34 3 -34 -17 0 -13 3 -38 6 -55 l7 -31 84 0 c93 0 129 13 161 57
15 22 202 502 202 520 0 2 -35 3 -77 1 l-77 -3 -37 -128 c-20 -71 -39 -131
-42 -133 -3 -3 -25 56 -48 131 l-43 136 -90 -2 c-50 0 -102 2 -116 5 -14 3
-36 1 -50 -5z"/>
<path d="M5140 590 l0 -211 78 3 77 3 0 205 0 205 -77 3 -78 3 0 -211z"/>
<path d="M5361 788 c0 -7 37 -101 82 -208 l82 -195 70 0 69 0 88 205 c48 112
88 205 88 207 0 2 -36 3 -79 3 -67 0 -80 -3 -85 -17 -33 -115 -70 -230 -75
-236 -4 -4 -22 43 -41 105 -47 159 -38 148 -125 148 -54 0 -75 -4 -74 -12z"/>
</g>
</svg>
