<svg width="42" height="35" viewBox="0 0 42 35" fill="none" xmlns="http://www.w3.org/2000/svg">
<path d="M21 3.15292C26.607 3.15292 27.272 3.17042 29.4858 3.255C31.7748 3.3425 34.132 3.77708 35.7998 5.16687C37.4832 6.56979 37.989 8.51521 38.094 10.4285C38.1955 12.2733 38.2165 12.8275 38.2165 17.5C38.2165 22.1725 38.1955 22.7267 38.094 24.5715C37.9907 26.4688 37.457 28.4521 35.7998 29.8331C34.1163 31.236 31.7835 31.6575 29.4858 31.745C27.272 31.8296 26.607 31.8471 21 31.8471C15.393 31.8471 14.728 31.8296 12.5142 31.745C10.255 31.659 7.8435 31.204 6.20025 29.8331C4.5255 28.4375 4.011 26.4731 3.906 24.5715C3.8045 22.7267 3.7835 22.1725 3.7835 17.5C3.7835 12.8275 3.8045 12.2733 3.906 10.4285C4.00925 8.53854 4.54825 6.54354 6.20025 5.16687C7.88025 3.76688 10.2235 3.3425 12.5142 3.255C14.728 3.17042 15.393 3.15292 21 3.15292ZM21 0C15.2968 0 14.581 0.0204167 12.341 0.105C9.09475 0.228958 5.87125 0.981458 3.5245 2.93708C1.169 4.9 0.27475 7.58042 0.126 10.2842C0.0245 12.1508 0 12.7473 0 17.5C0 22.2527 0.0245 22.8492 0.126 24.7158C0.27475 27.4181 1.18125 30.1117 3.5245 32.0629C5.87825 34.0244 9.1 34.771 12.341 34.895C14.581 34.9796 15.2968 35 21 35C26.7033 35 27.419 34.9796 29.659 34.895C32.9035 34.771 36.1305 34.0171 38.4755 32.0629C40.8327 30.0985 41.7253 27.4196 41.874 24.7158C41.9755 22.8492 42 22.2527 42 17.5C42 12.7473 41.9755 12.1508 41.874 10.2842C41.7253 7.57896 40.8205 4.89125 38.4755 2.93708C36.1253 0.978542 32.8947 0.2275 29.659 0.105C27.419 0.0204167 26.7033 0 21 0Z" fill="#6B6B6B"/>
<path d="M21.0003 8.51367C15.045 8.51367 10.2168 12.5372 10.2168 17.4999C10.2168 22.4626 15.045 26.4862 21.0003 26.4862C26.9555 26.4862 31.7838 22.4626 31.7838 17.4999C31.7838 12.5372 26.9555 8.51367 21.0003 8.51367ZM21.0003 23.3333C17.1345 23.3333 14.0003 20.7214 14.0003 17.4999C14.0003 14.2785 17.1345 11.6666 21.0003 11.6666C24.866 11.6666 28.0003 14.2785 28.0003 17.4999C28.0003 20.7214 24.866 23.3333 21.0003 23.3333Z" fill="#6B6B6B"/>
<path d="M32.2104 10.2579C33.6022 10.2579 34.7304 9.31766 34.7304 8.15786C34.7304 6.99806 33.6022 6.05786 32.2104 6.05786C30.8187 6.05786 29.6904 6.99806 29.6904 8.15786C29.6904 9.31766 30.8187 10.2579 32.2104 10.2579Z" fill="#6B6B6B"/>
</svg>
