<svg width="42" height="35" viewBox="0 0 42 35" fill="none" xmlns="http://www.w3.org/2000/svg">
<path d="M37.7002 8.71277C37.7248 9.09148 37.7247 9.47198 37.7247 9.85428C37.7247 21.5333 29.0552 35 13.2072 35V34.9928C8.526 35 3.941 33.6252 0 31.0316C0.68075 31.116 1.365 31.1572 2.051 31.159C5.9325 31.1626 9.702 29.8273 12.7523 27.3683C9.065 27.2965 5.831 24.8304 4.70225 21.23C5.99375 21.4848 7.32375 21.4328 8.5925 21.0792C4.571 20.2464 1.68 16.6226 1.68 12.4155C1.68 12.3778 1.68 12.3401 1.68 12.3042C2.87875 12.9899 4.21925 13.3686 5.59125 13.4099C1.80425 10.8163 0.63525 5.65077 2.9225 1.61238C7.2975 7.13331 13.7532 10.4897 20.6815 10.8468C19.9867 7.77765 20.937 4.5613 23.1735 2.40211C26.6437 -0.945269 32.102 -0.772965 35.3657 2.7862C37.296 2.39672 39.1458 1.66981 40.838 0.64137C40.194 2.68749 38.8482 4.42489 37.0492 5.53051C38.759 5.32052 40.4268 4.85206 42 4.13772C40.8433 5.91282 39.3872 7.46176 37.7002 8.71277Z" fill="#6B6B6B"/>
</svg>
