<svg width="42" height="35" viewBox="0 0 42 35" fill="none" xmlns="http://www.w3.org/2000/svg">
<path d="M41.1215 5.46487C40.6385 3.31411 39.2157 1.61876 37.408 1.04329C34.1337 3.70149e-07 21 0 21 0C21 0 7.86625 3.70149e-07 4.59025 1.04329C2.78425 1.61876 1.3615 3.31204 0.8785 5.46487C0 9.3648 0 17.5 0 17.5C0 17.5 0 25.6352 0.8785 29.5351C1.3615 31.6859 2.78425 33.3812 4.592 33.9567C7.86625 35 21 35 21 35C21 35 34.1338 35 37.4098 33.9567C39.2158 33.3812 40.6385 31.688 41.1233 29.5351C42 25.6352 42 17.5 42 17.5C42 17.5 42 9.3648 41.1215 5.46487ZM16.7055 24.8879V10.1121L27.6815 17.5L16.7055 24.8879Z" fill="#6B6B6B"/>
</svg>
