<svg width="29" height="26" viewBox="0 0 29 26" fill="none" xmlns="http://www.w3.org/2000/svg">
<g clip-path="url(#clip0_386_60)">
<path d="M13.218 7.10775L10.1041 4.316L10.9584 3.55008L13.8958 6.18258V0H15.1042V6.18258L18.0646 3.52842L18.9189 4.29433L15.7808 7.10667C15.428 7.423 14.964 7.58117 14.4988 7.58117C14.0336 7.58117 13.5708 7.423 13.2168 7.10667L13.218 7.10775ZM26.5833 10.8333V21.6667H29V26H16.3185C17.5994 26 18.7618 25.584 19.6922 24.9167H27.7929V22.75H21.4286C21.5663 22.4044 21.6594 22.0426 21.7053 21.6667H21.75V10.8333H15.1042V13H16.3185C17.9812 13 19.3333 14.2123 19.3333 15.7029V16.25H18.125V15.7029C18.125 14.8103 17.3142 14.0833 16.3185 14.0833H12.6815C11.6858 14.0833 10.875 14.8103 10.875 15.7029C10.875 16.4223 11.4139 17.0625 12.1848 17.2607L17.1462 18.5315C18.4331 18.8619 19.3333 19.9301 19.3333 21.1304C19.3333 22.6211 17.9812 23.8333 16.3185 23.8333H15.1042V26H13.8958V23.8333H12.6815C11.0188 23.8333 9.66667 22.6211 9.66667 21.1304V20.5833H10.875V21.1304C10.875 22.0231 11.6858 22.75 12.6815 22.75H16.3185C17.3142 22.75 18.125 22.0231 18.125 21.1304C18.125 20.4111 17.5861 19.7708 16.814 19.5726L11.8538 18.3018C10.5669 17.9714 9.66667 16.9032 9.66667 15.7029C9.66667 14.2123 11.0188 13 12.6815 13H13.8958V10.8333H7.25V21.6667H7.29471C7.34183 22.0426 7.43488 22.4044 7.57142 22.75H1.20833V24.9167H9.309C10.2382 25.584 11.4018 26 12.6827 26H0V21.6667H2.41667V10.8333H0V8.56808C0 7.37858 0.723792 6.2855 1.88863 5.71458L6.79204 3.32692L7.69708 4.13833L2.46742 6.66575C1.69046 7.046 1.20833 7.77508 1.20833 8.56808V9.75H27.7917V8.56808C27.7917 7.774 27.3095 7.04492 26.5326 6.66575L21.3041 4.13725L22.2092 3.32583L27.1114 5.71458C28.2774 6.28333 29 7.3775 29 8.56808V10.8333H26.5833ZM6.04167 10.8333H3.625V21.6667H6.04167V10.8333ZM25.375 10.8333H22.9583V21.6667H25.375V10.8333Z" fill="black"/>
</g>
<defs>
<clipPath id="clip0_386_60">
<rect width="29" height="26" fill="white"/>
</clipPath>
</defs>
</svg>
