<svg width="287" height="279" viewBox="0 0 287 279" fill="none" xmlns="http://www.w3.org/2000/svg">
<path d="M0 50C0 22.3858 22.3858 0 50 0H237C264.614 0 287 22.3858 287 50V228.965C287 256.579 264.614 278.965 237 278.965H50C22.3858 278.965 0 256.579 0 228.965V50Z" fill="url(#paint0_linear_207_39)"/>
<path d="M137.057 172.61H88.1175C86.495 172.61 84.939 171.998 83.7918 170.909C82.6445 169.821 82 168.344 82 166.805C82 165.265 82.6445 163.789 83.7918 162.7C84.939 161.612 86.495 161 88.1175 161H137.057C138.68 161 140.236 161.612 141.383 162.7C142.53 163.789 143.175 165.265 143.175 166.805C143.175 168.344 142.53 169.821 141.383 170.909C140.236 171.998 138.68 172.61 137.057 172.61Z" fill="#FFFDFD"/>
<path d="M122.708 155.61H86.1012C84.4831 155.61 82.9312 154.998 81.787 153.909C80.6428 152.821 80 151.344 80 149.805C80 148.265 80.6428 146.789 81.787 145.7C82.9312 144.612 84.4831 144 86.1012 144H122.708C124.326 144 125.878 144.612 127.023 145.7C128.167 146.789 128.81 148.265 128.81 149.805C128.81 151.344 128.167 152.821 127.023 153.909C125.878 154.998 124.326 155.61 122.708 155.61Z" fill="#FFFDFD"/>
<path d="M109.913 138.61H85.1825C83.5428 138.61 81.9703 137.998 80.8108 136.909C79.6514 135.821 79 134.344 79 132.805C79 131.265 79.6514 129.789 80.8108 128.7C81.9703 127.612 83.5428 127 85.1825 127H109.913C111.552 127 113.125 127.612 114.284 128.7C115.444 129.789 116.095 131.265 116.095 132.805C116.095 134.344 115.444 135.821 114.284 136.909C113.125 137.998 111.552 138.61 109.913 138.61Z" fill="#FFFDFD"/>
<path d="M141.133 80C139.506 80 137.946 80.6191 136.796 81.7212C135.646 82.8232 135 84.318 135 85.8765V115.259C135 116.817 135.647 118.312 136.797 119.414L155.194 137.043C156.351 138.114 157.9 138.706 159.508 138.693C161.116 138.679 162.654 138.061 163.791 136.972C164.928 135.882 165.573 134.408 165.587 132.867C165.601 131.327 164.983 129.842 163.866 128.734L147.265 112.826V85.8765C147.265 84.318 146.619 82.8232 145.469 81.7212C144.319 80.6191 142.759 80 141.133 80Z" fill="#FFFDFD"/>
<path d="M152.189 185.599C150.568 185.668 148.984 185.116 147.787 184.065C146.59 183.013 145.877 181.549 145.804 179.992C145.732 178.436 146.307 176.916 147.402 175.767C148.498 174.617 150.024 173.933 151.645 173.864C163.213 172.848 174.24 168.688 183.434 161.874C192.628 155.059 199.609 145.87 203.559 135.384C207.509 124.897 208.264 113.548 205.737 102.664C203.209 91.7809 197.504 81.814 189.288 73.9311C181.072 66.0482 170.687 60.5757 159.348 58.1545C148.009 55.7334 136.186 56.4639 125.264 60.2604C114.341 64.0569 104.772 70.7623 97.6771 79.5911C90.5818 88.42 86.2542 99.0068 85.2011 110.112C85.0552 111.662 84.2739 113.092 83.0289 114.089C81.784 115.086 80.1775 115.568 78.5628 115.428C76.9482 115.288 75.4576 114.538 74.419 113.343C73.3804 112.147 72.8789 110.605 73.0248 109.055C74.7296 91.0024 83.6216 74.2761 97.8501 62.3581C112.079 50.4401 130.547 44.2488 149.411 45.0729C168.275 45.897 186.082 53.673 199.124 66.7823C212.166 79.8916 219.438 97.3242 219.428 115.451C219.521 133.044 212.713 150.027 200.356 163.02C187.999 176.014 171 184.066 152.739 185.575C152.556 185.593 152.366 185.599 152.189 185.599Z" fill="#FFFDFD"/>
<defs>
<linearGradient id="paint0_linear_207_39" x1="143.5" y1="0" x2="143.5" y2="278.965" gradientUnits="userSpaceOnUse">
<stop stop-color="#FF1B1C"/>
<stop offset="1" stop-color="#7C1112"/>
</linearGradient>
</defs>
</svg>
