<svg width="40" height="40" viewBox="0 0 40 40" fill="none" xmlns="http://www.w3.org/2000/svg">
<g clip-path="url(#clip0_271_74)">
<path d="M40 37.6433L29.5633 27.2067C32.2744 23.891 33.6073 19.6602 33.2864 15.3893C32.9655 11.1184 31.0154 7.13422 27.8393 4.26087C24.6633 1.38752 20.5043 -0.155177 16.2227 -0.0481237C11.9412 0.0589293 7.86451 1.80754 4.83603 4.83602C1.80754 7.86451 0.0589293 11.9412 -0.0481237 16.2227C-0.155177 20.5043 1.38752 24.6633 4.26087 27.8393C7.13422 31.0154 11.1184 32.9655 15.3893 33.2864C19.6602 33.6073 23.891 32.2744 27.2067 29.5633L37.6433 40L40 37.6433ZM16.6667 30C14.0296 30 11.4517 29.218 9.25907 27.7529C7.06641 26.2878 5.35744 24.2055 4.34828 21.7691C3.33911 19.3328 3.07506 16.6519 3.58953 14.0655C4.104 11.4791 5.37388 9.10328 7.23858 7.23858C9.10328 5.37388 11.4791 4.104 14.0655 3.58953C16.6519 3.07506 19.3328 3.33911 21.7691 4.34828C24.2055 5.35744 26.2878 7.06641 27.7529 9.25907C29.218 11.4517 30 14.0296 30 16.6667C29.996 20.2017 28.59 23.5907 26.0904 26.0904C23.5908 28.59 20.2017 29.996 16.6667 30Z" fill="#DD2F2F"/>
</g>
<defs>
<clipPath id="clip0_271_74">
<rect width="40" height="40" fill="white"/>
</clipPath>
</defs>
</svg>
