<svg width="19" height="19" viewBox="0 0 19 19" fill="none" xmlns="http://www.w3.org/2000/svg">
<path d="M15.0417 0H3.95833C2.9089 0.00137133 1.90282 0.456762 1.16076 1.26628C0.418698 2.0758 0.00125705 3.17335 0 4.31818L0 14.6818C0.00125705 15.8267 0.418698 16.9242 1.16076 17.7337C1.90282 18.5432 2.9089 18.9986 3.95833 19H15.0417C16.0911 18.9986 17.0972 18.5432 17.8392 17.7337C18.5813 16.9242 18.9987 15.8267 19 14.6818V4.31818C18.9987 3.17335 18.5813 2.0758 17.8392 1.26628C17.0972 0.456762 16.0911 0.00137133 15.0417 0ZM3.95833 1.72727H15.0417C15.5157 1.72829 15.9786 1.88404 16.3708 2.17447C16.7631 2.4649 17.0666 2.87673 17.2425 3.35695L11.1799 9.97155C10.7338 10.4563 10.1297 10.7285 9.5 10.7285C8.8703 10.7285 8.26624 10.4563 7.82008 9.97155L1.7575 3.35695C1.93337 2.87673 2.23694 2.4649 2.62916 2.17447C3.02138 1.88404 3.4843 1.72829 3.95833 1.72727ZM15.0417 17.2727H3.95833C3.32844 17.2727 2.72435 16.9998 2.27895 16.5139C1.83356 16.028 1.58333 15.369 1.58333 14.6818V5.61364L6.70067 11.1927C7.44375 12.0013 8.45045 12.4554 9.5 12.4554C10.5495 12.4554 11.5563 12.0013 12.2993 11.1927L17.4167 5.61364V14.6818C17.4167 15.369 17.1664 16.028 16.721 16.5139C16.2756 16.9998 15.6716 17.2727 15.0417 17.2727Z" fill="#DC1B1B"/>
</svg>
