<svg width="29" height="26" viewBox="0 0 29 26" fill="none" xmlns="http://www.w3.org/2000/svg">
<path d="M14.5 12.9789C15.4559 12.9789 16.3904 12.725 17.1853 12.2494C17.9801 11.7738 18.5996 11.0978 18.9654 10.3069C19.3312 9.51594 19.427 8.64563 19.2405 7.80599C19.054 6.96635 18.5936 6.19509 17.9177 5.58975C17.2417 4.9844 16.3805 4.57216 15.4429 4.40514C14.5054 4.23813 13.5335 4.32384 12.6504 4.65146C11.7672 4.97907 11.0123 5.53386 10.4812 6.24567C9.95014 6.95748 9.66667 7.79435 9.66667 8.65043C9.66667 9.79841 10.1759 10.8994 11.0823 11.7111C11.9887 12.5229 13.2181 12.9789 14.5 12.9789ZM14.5 6.4862C14.978 6.4862 15.4452 6.61313 15.8426 6.85094C16.24 7.08875 16.5498 7.42676 16.7327 7.82222C16.9156 8.21768 16.9635 8.65284 16.8702 9.07266C16.777 9.49248 16.5468 9.8781 16.2088 10.1808C15.8709 10.4835 15.4403 10.6896 14.9715 10.7731C14.5027 10.8566 14.0168 10.8137 13.5752 10.6499C13.1336 10.4861 12.7562 10.2087 12.4906 9.85282C12.2251 9.49691 12.0833 9.07848 12.0833 8.65043C12.0833 8.07644 12.3379 7.52596 12.7912 7.12009C13.2444 6.71422 13.8591 6.4862 14.5 6.4862ZM19.3333 23.8325L29 25.9405V14.5837C28.9997 13.8867 28.749 13.2082 28.2848 12.6487C27.8207 12.0892 27.1677 11.6784 26.4226 11.4769L23.8851 10.7194C24.0707 10.0445 24.1652 9.35204 24.1667 8.65693C24.1667 6.36097 23.1482 4.15904 21.3354 2.53556C19.5225 0.912066 17.0638 0 14.5 0C11.9362 0 9.47749 0.912066 7.66464 2.53556C5.85178 4.15904 4.83333 6.36097 4.83333 8.65693C4.83691 9.09619 4.8773 9.5346 4.95417 9.96845C4.40543 9.77254 3.81144 9.70003 3.22416 9.75727C2.63689 9.81451 2.07422 9.99976 1.58539 10.2968C1.09656 10.5938 0.696451 10.9936 0.420072 11.4612C0.143694 11.9288 -0.000535546 12.4499 1.49427e-06 12.9789V23.5317L9.64613 26L19.3333 23.8325ZM9.37304 4.06659C10.7351 2.86409 12.5726 2.19233 14.4853 2.19765C16.3979 2.20296 18.2308 2.88491 19.5845 4.09496C20.9382 5.305 21.7032 6.94508 21.7127 8.65793C21.7222 10.3708 20.9756 12.0176 19.6354 13.2397L14.5 17.7402L9.37304 13.2483C8.01351 12.0307 7.24974 10.3794 7.24974 8.65747C7.24974 6.93557 8.01351 5.2842 9.37304 4.06659ZM2.41667 12.9789C2.41514 12.8004 2.46369 12.6245 2.55785 12.4672C2.65201 12.3099 2.78877 12.1762 2.95558 12.0786C3.13008 11.976 3.33111 11.9154 3.53934 11.9025C3.74756 11.8896 3.95599 11.9249 4.14458 12.005L5.87733 12.5655C6.34092 13.3877 6.94741 14.1386 7.67413 14.7904L14.5 20.7701L21.3355 14.7828C22.0077 14.1817 22.5776 13.4956 23.0272 12.7462L25.7061 13.5481C25.9584 13.6127 26.1804 13.7492 26.3384 13.9368C26.4965 14.1244 26.582 14.353 26.5821 14.588V23.1897L19.3333 21.6034L9.69083 23.7676L2.41667 21.902V12.9789Z" fill="black"/>
</svg>
