<svg width="18" height="19" viewBox="0 0 18 19" fill="none" xmlns="http://www.w3.org/2000/svg">
<path d="M14.8 6.33333V6.83333H15.3H17.5V16.625C17.5 17.1001 17.286 17.5709 16.879 17.929C16.4698 18.2888 15.9027 18.5 15.3 18.5H2.7C2.09729 18.5 1.53016 18.2888 1.12105 17.929C0.714001 17.5709 0.5 17.1001 0.5 16.625V6.83333H2.7H3.2V6.33333V5.54167C3.2 4.22674 3.79329 2.95046 4.87546 1.99854C5.9597 1.04481 7.44251 0.5 9 0.5C10.5575 0.5 12.0403 1.04481 13.1245 1.99854C14.2067 2.95046 14.8 4.22674 14.8 5.54167V6.33333ZM9.9 14.75H10.4V14.25V11.0833V10.5833H9.9H8.1H7.6V11.0833V14.25V14.75H8.1H9.9ZM13.5 6.83333H14V6.33333V5.54167C14 4.33704 13.4554 3.19696 12.5122 2.36728C11.5711 1.53941 10.3069 1.08333 9 1.08333C7.69315 1.08333 6.42894 1.53941 5.48778 2.36728C4.54457 3.19696 4 4.33704 4 5.54167V6.33333V6.83333H4.5H13.5Z" fill="#FFFEFE" stroke="#DC1B1B"/>
</svg>
