<svg width="50" height="44" viewBox="0 0 50 44" fill="none" xmlns="http://www.w3.org/2000/svg">
<path d="M44.4444 3.66667V0H38.8889V3.66667H33.3333V0H27.7778V3.66667H22.2222V0H16.6667V3.66667H11.1111V0H5.55556V3.66667H0V38.5C0 39.9587 0.877974 41.3576 2.44078 42.3891C4.00358 43.4205 6.1232 44 8.33333 44H41.6667C43.8768 44 45.9964 43.4205 47.5592 42.3891C49.122 41.3576 50 39.9587 50 38.5V3.66667H44.4444ZM44.4444 38.5C44.4444 38.9862 44.1518 39.4525 43.6309 39.7964C43.1099 40.1402 42.4034 40.3333 41.6667 40.3333H8.33333C7.59662 40.3333 6.89008 40.1402 6.36915 39.7964C5.84821 39.4525 5.55556 38.9862 5.55556 38.5V7.33333H44.4444V38.5ZM38.8889 16.5H11.1111V12.8333H38.8889V16.5ZM38.8889 23.8333H11.1111V20.1667H38.8889V23.8333ZM27.7778 31.1667H11.1111V27.5H27.7778V31.1667Z" fill="#FFFDFD"/>
</svg>
