<svg width="50" height="44" viewBox="0 0 50 44" fill="none" xmlns="http://www.w3.org/2000/svg">
<path d="M50 41.4111L36.9715 29.9461C40.3558 26.3037 42.0198 21.656 41.6192 16.9643C41.2186 12.2725 38.7842 7.89579 34.8194 4.73932C30.8546 1.58284 25.6629 -0.111866 20.318 0.00573544C14.9732 0.123337 9.88413 2.04425 6.10357 5.37114C2.32301 8.69804 0.140156 13.1764 0.00651754 17.8798C-0.127121 22.5833 1.79868 27.1521 5.38559 30.6411C8.97249 34.1301 13.9461 36.2724 19.2776 36.6249C24.6091 36.9774 29.8906 35.5131 34.0296 32.535L47.0581 44L50 41.4111ZM20.8722 33.0147C17.5802 33.0147 14.3622 32.1556 11.625 30.5462C8.88784 28.9367 6.75448 26.6491 5.4947 23.9727C4.23492 21.2963 3.9053 18.3513 4.54753 15.51C5.18976 12.6687 6.77499 10.0589 9.10276 8.01043C11.4305 5.96199 14.3963 4.56699 17.625 4.00183C20.8537 3.43666 24.2004 3.72673 27.2417 4.83533C30.2831 5.94394 32.8826 7.8213 34.7116 10.23C36.5405 12.6387 37.5167 15.4706 37.5167 18.3675C37.5117 22.2508 35.7565 25.9739 32.6361 28.7198C29.5158 31.4657 25.285 33.0103 20.8722 33.0147Z" fill="#FFFDFD"/>
</svg>
